<svg width="24" height="24" fill="none" xmlns="http://www.w3.org/2000/svg"><path d="M7.733 15.516h12.751c.314 0 .59-.209.676-.51l2.813-9.844a.703.703 0 00-.676-.896H6.11l-.503-2.262a.703.703 0 00-.686-.55H.703a.703.703 0 100 1.405h3.655l2.538 11.424a2.113 2.113 0 00-1.271 1.936c0 1.163.946 2.11 2.11 2.11h12.75a.703.703 0 100-1.407H7.734a.704.704 0 01-.002-1.406zm14.632-9.844l-2.411 8.437H8.298L6.423 5.672h15.942z" fill="#44515D"/><path d="M7.031 20.438c0 1.163.947 2.109 2.11 2.109 1.163 0 2.109-.946 2.109-2.11 0-1.163-.946-2.109-2.11-2.109-1.162 0-2.109.946-2.109 2.11zm2.11-.704a.704.704 0 010 1.407.704.704 0 010-1.407zM16.969 20.438c0 1.163.946 2.109 2.11 2.109 1.162 0 2.108-.946 2.108-2.11 0-1.163-.946-2.109-2.109-2.109s-2.11.946-2.11 2.11zm2.11-.704a.704.704 0 11-.003 1.408.704.704 0 01.002-1.408z" fill="#44515D"/></svg>