<svg width="25" height="22" fill="none" xmlns="http://www.w3.org/2000/svg"><path d="M22.469 2.047C19.75-.25 15.579.078 13 2.75c-2.625-2.672-6.797-3-9.516-.703-3.515 2.953-3 7.781-.468 10.36l8.203 8.39c.469.469 1.078.75 1.781.75.656 0 1.266-.281 1.734-.75l8.25-8.39c2.485-2.579 3-7.407-.515-10.36zm-1.125 8.765l-8.203 8.391c-.094.094-.188.094-.329 0l-8.203-8.39c-1.734-1.735-2.062-5.016.329-7.032 1.828-1.547 4.64-1.312 6.421.469L13 5.938l1.64-1.688c1.735-1.781 4.547-2.016 6.376-.516 2.39 2.063 2.062 5.344.328 7.079z" fill="#44515D"/></svg>
