<svg xmlns="http://www.w3.org/2000/svg" viewBox="0 0 14 10.7"><defs><style>.a{fill:#ffffff}</style></defs><circle class="a" cx="3.97" cy="5.35" r=".95"/><circle class="a" cx="6.78" cy="5.35" r=".95"/><circle class="a" cx="9.58" cy="5.35" r=".95"/><path class="a" d="M13.74 9.12a4.72 4.72 0 01-1.09-1.06 4.51 4.51 0 00.93-2.71C13.58 2.4 10.53 0 6.79 0S0 2.4 0 5.35s3.05 5.35 6.79 5.35a8.11 8.11 0 003.61-.82 7.31 7.31 0 003.09.34.61.61 0 00.25-1.1zm-2.35-.77a5.41 5.41 0 00.46.64 7.08 7.08 0 01-1.3-.33.64.64 0 00-.49 0 6.88 6.88 0 01-3.27.8C3.71 9.5 1.2 7.63 1.2 5.35S3.71 1.2 6.79 1.2s5.58 1.86 5.58 4.15a3.44 3.44 0 01-.92 2.28.59.59 0 00-.06.72z"/></svg>
