<svg xmlns="http://www.w3.org/2000/svg" viewBox="0 0 25 21.76"><path d="M22.71 7.3c0 3.45-8 9.5-10.21 12.16C10.28 16.8 2.29 10.75 2.29 7.3c0-4.45 5.77-7.3 10.21-2.47C16.94 0 22.71 2.85 22.71 7.3z" fill="#b92f2f"/><path d="M22.8 2.1A7.42 7.42 0 0017.58 0a8.61 8.61 0 00-5.08 1.75A8.61 8.61 0 007.42 0 7.43 7.43 0 002.2 2.1 7.17 7.17 0 000 7.3c0 3.19 3.26 6.48 7.86 10.79 1.19 1.12 2.32 2.17 2.88 2.84a2.29 2.29 0 001.76.83h.07a2.28 2.28 0 001.7-.82 39 39 0 012.88-2.85C21.75 13.78 25 10.49 25 7.3a7.17 7.17 0 00-2.2-5.2zm-5.22.19zM12.5 19.46C10.28 16.8 2.29 10.75 2.29 7.3a5.05 5.05 0 015.13-5 6.93 6.93 0 015.08 2.53 7 7 0 015.08-2.54 5.05 5.05 0 015.13 5c0 3.46-7.99 9.51-10.21 12.17z" fill="#181818"/></svg>