<svg xmlns="http://www.w3.org/2000/svg" viewBox="0 0 20 20"><defs><style>.a{fill:#fff;}.b{fill:#b72828;}</style></defs><circle class="a" cx="10" cy="10" r="10"/><path class="b" d="M13.36,3H6.64A3.79,3.79,0,0,0,2.85,6.79v6.72A3.79,3.79,0,0,0,6.64,17.3h6.72a3.79,3.79,0,0,0,3.79-3.79V6.79A3.79,3.79,0,0,0,13.36,3Zm2.33,10.51a2.34,2.34,0,0,1-2.33,2.33H6.64a2.34,2.34,0,0,1-2.33-2.33V6.79A2.34,2.34,0,0,1,6.64,4.46h6.72a2.34,2.34,0,0,1,2.33,2.33Z"/><path class="b" d="M10,6.3a3.85,3.85,0,1,0,3.85,3.85A3.85,3.85,0,0,0,10,6.3Zm0,6.24a2.39,2.39,0,1,1,2.39-2.39A2.39,2.39,0,0,1,10,12.54Z"/><circle class="b" cx="13.86" cy="6.35" r="0.88"/></svg>