<svg xmlns="http://www.w3.org/2000/svg" viewBox="0 0 25 21.34"><defs><style>.b{fill:#181818}</style></defs><path d="M7.77 13.71h14.31a1.11 1.11 0 001.06-.92L25 4.39a1.17 1.17 0 00-1.1-1.46H5.81z" fill="#b92f2f"/><path class="b" d="M22.55 5.13l-1.38 6.37H7.4L6.24 5.13h16.31m1.35-2.2H5.81l2 10.78h14.27a1.11 1.11 0 001.06-.92L25 4.39a1.17 1.17 0 00-1.1-1.46zM8.54 19.31a1.1 1.1 0 010-2.2l11.7-.11a1.1 1.1 0 110 2.2l-11.7.08z"/><path class="b" d="M8.55 17.89A1.11 1.11 0 017.47 17L4.18 2.2H1.1a1.1 1.1 0 010-2.2h4a1.1 1.1 0 011.04.86l3.48 15.68a1.11 1.11 0 01-.83 1.32 1 1 0 01-.24.03z"/><circle class="b" cx="8.54" cy="18.21" r="3.13"/><circle class="b" cx="20.25" cy="18.13" r="3.13"/></svg>