<svg xmlns="http://www.w3.org/2000/svg" viewBox="0 0 18 15.36"><defs><style>.b{fill:#181818}</style></defs><path d="M5.59 9.87H15.9a.81.81 0 00.76-.66L18 3.16a.84.84 0 00-.77-1.05h-13z" fill="#b92f2f"/><path class="b" d="M16.24 3.69l-1 4.59H5.33L4.5 3.69h11.74m1-1.58h-13l1.35 7.76H15.9a.81.81 0 00.76-.66L18 3.16a.84.84 0 00-.77-1.05zM6.15 13.9a.79.79 0 110-1.58l8.43-.06a.79.79 0 01.79.79.8.8 0 01-.79.8l-8.43.05z"/><path class="b" d="M6.15 12.88a.79.79 0 01-.77-.62L3 1.59H.79A.8.8 0 010 .79.8.8 0 01.79 0h2.86a.79.79 0 01.77.62l2.51 11.29a.79.79 0 01-.6.95z"/><circle class="b" cx="6.15" cy="13.11" r="2.25"/><circle class="b" cx="14.58" cy="13.11" r="2.25"/></svg>