<svg width="64" height="12" fill="none" xmlns="http://www.w3.org/2000/svg"><path d="M6 0l1.347 4.146h4.36L8.18 6.708l1.347 4.146L6 8.292l-3.527 2.562L3.82 6.708.294 4.146h4.359L6 0zM19 0l1.347 4.146h4.36L21.18 6.708l1.347 4.146L19 8.292l-3.527 2.562 1.347-4.146-3.526-2.562h4.359L19 0zM32 0l1.347 4.146h4.36L34.18 6.708l1.347 4.146L32 8.292l-3.527 2.562 1.347-4.146-3.526-2.562h4.359L32 0zM45 0l1.347 4.146h4.36L47.18 6.708l1.347 4.146L45 8.292l-3.527 2.562 1.347-4.146-3.526-2.562h4.359L45 0zM58 0l1.347 4.146h4.36L60.18 6.708l1.347 4.146L58 8.292l-3.527 2.562 1.347-4.146-3.526-2.562h4.359L58 0z" fill="#C4C4C4"/></svg>