<svg width="50" height="50" fill="none" xmlns="http://www.w3.org/2000/svg"><circle cx="25" cy="25" r="25" fill="#F6F6F7"/><path d="M28.672 25.25c-1.36 0-1.969.75-4.172.75-2.25 0-2.86-.75-4.219-.75-3.468 0-6.281 2.86-6.281 6.328v1.172c0 1.266.984 2.25 2.25 2.25h16.5A2.25 2.25 0 0035 32.75v-1.172c0-3.469-2.86-6.328-6.328-6.328zm4.078 7.5h-16.5v-1.172c0-2.25 1.781-4.078 4.031-4.078.703 0 1.782.75 4.219.75 2.39 0 3.469-.75 4.172-.75a4.081 4.081 0 014.078 4.078v1.172zM24.5 24.5c3.703 0 6.75-3 6.75-6.75 0-3.703-3.047-6.75-6.75-6.75-3.75 0-6.75 3.047-6.75 6.75 0 3.75 3 6.75 6.75 6.75zm0-11.25c2.438 0 4.5 2.063 4.5 4.5 0 2.484-2.063 4.5-4.5 4.5a4.501 4.501 0 01-4.5-4.5c0-2.438 2.016-4.5 4.5-4.5z" fill="#44515D" fill-opacity=".3"/></svg>